<svg width="37" height="28" viewBox="0 0 37 28" fill="none" xmlns="http://www.w3.org/2000/svg">
    <path d="M16.485 0.769997L11.025 19.035L8.88 10.845C11.4367 10.845 13.495 11.56 15.055 12.99C16.6583 14.42 17.46 16.4133 17.46 18.97C17.46 21.4833 16.6367 23.4983 14.99 25.015C13.3867 26.5317 11.35 27.29 8.88 27.29C6.41 27.29 4.35167 26.5317 2.705 25.015C1.10167 23.4983 0.3 21.4833 0.3 18.97C0.3 18.2767 0.343333 17.5833 0.43 16.89C0.56 16.1967 0.798333 15.3517 1.145 14.355C1.535 13.3583 2.09833 12.0583 2.835 10.455L7.385 0.769997H16.485ZM35.335 0.769997L29.875 19.035L27.73 10.845C30.2867 10.845 32.345 11.56 33.905 12.99C35.5083 14.42 36.31 16.4133 36.31 18.97C36.31 21.4833 35.4867 23.4983 33.84 25.015C32.2367 26.5317 30.2 27.29 27.73 27.29C25.26 27.29 23.2017 26.5317 21.555 25.015C19.9517 23.4983 19.15 21.4833 19.15 18.97C19.15 18.2767 19.1933 17.5833 19.28 16.89C19.41 16.1967 19.6483 15.3517 19.995 14.355C20.385 13.3583 20.9483 12.0583 21.685 10.455L26.235 0.769997H35.335Z" fill="#CC2027"/>
</svg>
